<svg xmlns="http://www.w3.org/2000/svg" viewBox="0 0 304 304"><defs><style>.cls-1{fill:#e2e4f1;}.cls-2,.cls-4{fill:#ff624e;}.cls-3{fill:#fff;}.cls-4,.cls-5{fill-rule:evenodd;}.cls-5{fill:#445665;}</style></defs><g id="Шар_2" data-name="Шар 2"><g id="Шар_1-2" data-name="Шар 1"><g id="Address"><path class="cls-1" d="M36.21,259.6a6.2,6.2,0,0,1,4.1-1.6H261.89a8.21,8.21,0,0,1,5.6,2.2l30.61,27.4c1.2,1.1,3,3.71,3,5.41,0,1.9-2,5.2-6.76,6.73L8,299.4c-4.45-4-4.18-6.4-4.18-9.3,0-2,2.13-4,3.63-5.5Z"/><path class="cls-2" d="M243.75,143.51c-25.86,43.61-83,124.29-85.78,128.71-3.39,5.33-10.36,5.16-13.44.39-.93-1.44-45.73-67.81-52.07-77.89-8.76-14-44.2-45.69-40.84-102.89,1.76-29.78,22-56.79,47-72.9C128.08,1.32,164.84-2,195.41,15.23,248.49,39.49,260.78,97.7,243.75,143.51Z"/><path class="cls-3" d="M150.08,168.77A65.69,65.69,0,1,0,84.4,103.09,65.69,65.69,0,0,0,150.08,168.77Z"/><path class="cls-4" d="M149.12,60.3c-5.74,0-10.31,4.87-10.31,11V90.41A1.93,1.93,0,0,1,137,92.33H120.08c-5.74,0-10.32,4.87-10.32,11s4.58,11,10.32,11H137a1.93,1.93,0,0,1,1.81,1.92v18c0,6.11,4.57,11,10.31,11s10.32-4.86,10.32-11v-18a1.92,1.92,0,0,1,1.81-1.92h18c5.74,0,10.32-4.87,10.32-11s-4.58-11-10.32-11h-18a1.92,1.92,0,0,1-1.81-1.92V71.28C159.44,65.17,154.87,60.3,149.12,60.3Z"/><path class="cls-5" d="M300,283.1l-29-26a11.8,11.8,0,0,0-8-3.1H175.14l65.68-98.3A103.66,103.66,0,0,0,254.51,104c0-57.3-46.38-104-103.46-104S47.59,46.6,47.59,104a103.53,103.53,0,0,0,19.19,60.4h.1L127.76,254H41a12,12,0,0,0-8,3.1l-29,26A12,12,0,0,0,12,304H292.1a11.67,11.67,0,0,0,11.1-7.7A11.9,11.9,0,0,0,300,283.1ZM71.28,156.8A95.81,95.81,0,0,1,55.58,104c0-52.9,42.79-96,95.47-96s95.46,43,95.46,96a95.64,95.64,0,0,1-13.29,48.8L154.85,269.9a4.13,4.13,0,0,1-3.3,1.8,3.76,3.76,0,0,1-3.3-1.8L71.38,156.8ZM295.8,293.4a3.78,3.78,0,0,1-3.7,2.6H12a4.06,4.06,0,0,1-3.8-2.6A4,4,0,0,1,9.3,289l29-26a4.49,4.49,0,0,1,2.7-1h92.17l8.49,12.5a11.9,11.9,0,0,0,19.8,0l8.39-12.5H263a3.78,3.78,0,0,1,2.7,1l29,26A4,4,0,0,1,295.8,293.4ZM219,103a69,69,0,1,0-69,69A69.14,69.14,0,0,0,219,103ZM89,103a61,61,0,1,1,61,61A61.11,61.11,0,0,1,89,103Zm76.23,16.13v12.19a15.68,15.68,0,1,1-31.36,0V119.13H121.68a15.68,15.68,0,0,1,0-31.36h12.19V74.68a15.68,15.68,0,1,1,31.36,0V87.77h13.09a15.68,15.68,0,1,1,0,31.36Zm-8,12.19V115.14a4,4,0,0,1,4-4h17.08a7.69,7.69,0,0,0,0-15.38H161.24a2.2,2.2,0,0,1-.8-.1,4.06,4.06,0,0,1-3.2-3.9V74.68a7.69,7.69,0,0,0-15.38,0V91.76a4,4,0,0,1-4,4H121.68a7.69,7.69,0,0,0,0,15.38h16.18a4,4,0,0,1,4,4v16.18a7.69,7.69,0,0,0,15.38,0Z"/></g></g></g></svg>