<svg xmlns="http://www.w3.org/2000/svg" viewBox="0 0 220 352"><defs><style>.cls-1{fill:#ffe0bf;}.cls-2{fill:#f2b983;}.cls-3{fill:#e2e4f1;}.cls-4{fill:#445665;fill-rule:evenodd;}</style></defs><g id="Шар_2" data-name="Шар 2"><g id="Шар_1-2" data-name="Шар 1"><g id="_Baby" data-name=" Baby"><g id="_Baby-2" data-name=" Baby"><path class="cls-1" d="M9.8,321.66a27.32,27.32,0,0,1,8.77-41.18,27.72,27.72,0,0,1,38.61,13.66l8.68,20.73a24.28,24.28,0,0,1-9.5,30.05,24.71,24.71,0,0,1-32.59-5.52Z"/><path class="cls-1" d="M210,320.35a27.28,27.28,0,0,0-8.68-41.05,27.6,27.6,0,0,0-38.5,13.62l-8.68,20.66a24.22,24.22,0,0,0,9.51,30,24.61,24.61,0,0,0,32.5-5.49Z"/><path class="cls-1" d="M18.5,213.59c22-40.06,62.44-46.84,62.44-46.84s5.22,6.48,29.45,5.87c23.82-.71,29-6.68,29-6.68s42.13,15.28,54,37c8.74,16,14,19.53,17.39,45.42,3.61,27.52-34.29,27.83-34.29,27.83h-136s-9-.31-13.47-1.52C4.33,268.53,2.62,242.93,18.5,213.59Z"/><path class="cls-1" d="M109.16,172.19c38.44,0,69.65-31,69.65-69.15S147.6,33.9,109.16,33.9,39.5,64.89,39.5,103,70.72,172.19,109.16,172.19Z"/><path class="cls-2" d="M121.06,6.09C138.63,12.58,138.63,39,138.63,39s-28-12.37-32.64-1.8S118.55,54,109.41,55.58,87.72,50.79,84,35.33c-3.51-15.47,8.94-25.15,8.94-25.15S103.48-.39,121.06,6.09Z"/><path class="cls-3" d="M177.61,253.31c0-3.73-3.43-6.77-7.62-6.77H48c-4.19,0-7.62,3-7.62,6.77V277h3.36c1.59,1.95,6.48,4.68,9.08,9C66.49,306.82,69.56,325,75.47,337.85,79.55,346.7,87,349,90.22,349H126c8.37-.32,15.53-5.56,19.39-11.87.4-.7,12.47-34.71,22-50.56,2.84-4.65,7.4-7.83,9.44-9.58h.79Z"/><path class="cls-4" d="M203.64,275.83a30.89,30.89,0,0,1,15.67,20.76,29.42,29.42,0,0,1-5.73,24.86L198,341.22a27.78,27.78,0,0,1-36.58,6.18,27.08,27.08,0,0,1-11.35-14.17l-3,6.3A22.15,22.15,0,0,1,127.18,352H92.71a22.34,22.34,0,0,1-19.8-12.37L70,333.73a27.77,27.77,0,0,1-47.83,7.79L6.6,321.75A30.7,30.7,0,0,1,.67,296.39a30.3,30.3,0,0,1,15.67-20.76,23.89,23.89,0,0,1,2.21-1.1,27.06,27.06,0,0,1-12-13.38C1.17,248.67,4,231.4,14.33,212.74,29.41,185.67,46.59,174,70.2,165.11A72.94,72.94,0,0,1,68.29,41.52,68.94,68.94,0,0,1,80,35.23c-3.21-16.18,8.54-26.46,10.35-28,1.81-1.69,13.36-11.78,32.15-4.89,16.88,6.19,19.7,27.06,20.2,34.24a73.27,73.27,0,0,1,6.53,128.49c23.72,8.89,41.1,20.56,56.16,47.83,10.35,18.76,13.16,35.93,7.84,48.41a28.22,28.22,0,0,1-12,13.38c.8.3,1.6.7,2.41,1.1ZM95.52,13.06c-.4.3-10.44,8.39-7.53,21.27,1.81,7.49,8.54,17.37,17.88,17.47-2.81-3.5-6.83-9.19-3.72-16.37a10.87,10.87,0,0,1,6.13-5.59c7-2.7,18.5.39,25.73,2.89-1.11-7.39-4.42-19.47-14.48-23.16a27,27,0,0,0-9.74-1.9A21.85,21.85,0,0,0,95.52,13.06ZM72.81,47.91a65.37,65.37,0,0,0-29.63,54.7c0,36.35,29.73,65.79,66.51,65.59,36.58,0,66.42-29.44,66.42-65.69,0-27.25-16.48-51.21-42.2-61.19v-.1c-7.33-2.8-17.89-5.69-22.61-3.9-1,.4-1.41.9-1.51,1.3-1.41,3.1.4,5.59,3.21,9l.06.06c1.89,2.28,4,4.76,2.86,7.82s-4.58,3.69-5.71,3.89h0a24.29,24.29,0,0,1-3.72.3c-9.14,0-19.08-5.89-24-17.08A64.66,64.66,0,0,0,72.81,47.91ZM21.57,216.62c-9,16.28-11.86,31.46-7.54,41.44q3.93,9.13,15.08,12.27a25.45,25.45,0,0,0,8,.9V251.37a8,8,0,0,1,8-8h10V231.9a3.52,3.52,0,0,1,7,0v11.48h94.55V231.9a3.52,3.52,0,0,1,7,0v11.48H173.9a8,8,0,0,1,8,8v19.36a31.71,31.71,0,0,0,8.94-.6c7.43-2,12.45-6.08,15.07-12.17,4.22-10.08,1.5-25.16-7.54-41.44C183,188.87,165.85,178.79,139.74,170a75.72,75.72,0,0,1-59.69.1C54,179,37,189,21.57,216.62ZM173.8,271.33v-20H45.19v20ZM28.41,336.72a19.79,19.79,0,0,0,26,4.4,19,19,0,0,0,7.83-22.76L52.12,294.09a23.1,23.1,0,0,0-32.06-11.27A22.64,22.64,0,0,0,12.83,317ZM160.53,290.9A31.51,31.51,0,0,1,169,279.32H51a30.8,30.8,0,0,1,8.74,11.78S70.16,316,70.2,316.16l9.85,20.16a14.15,14.15,0,0,0,12.66,7.89h34.47a14.25,14.25,0,0,0,12.66-8l10.85-21.85C150.69,314.32,160.53,290.9,160.53,290.9Zm30.95,45.72L207.05,317a21.85,21.85,0,0,0,4.22-18.87,22.69,22.69,0,0,0-11.65-15.37,23.25,23.25,0,0,0-10.85-2.7,22.77,22.77,0,0,0-7.64,1.3A23,23,0,0,0,167.66,294s-9.89,23.57-9.94,23.67A19.3,19.3,0,0,0,165.45,341,19.74,19.74,0,0,0,191.48,336.62ZM141.64,89.25a5.53,5.53,0,1,1-5.52-5.49A5.5,5.5,0,0,1,141.64,89.25Zm-6.95,31a3.89,3.89,0,0,1,1.31,5.47,31.13,31.13,0,0,1-53.07,0,4.07,4.07,0,0,1,1.3-5.47,4.18,4.18,0,0,1,5.54,1.29,23.18,23.18,0,0,0,39.4,0A4,4,0,0,1,134.69,120.28ZM82.88,95.73a5.49,5.49,0,1,0-5.53-5.49A5.51,5.51,0,0,0,82.88,95.73Z"/></g></g></g></g></svg>