<svg version="1.2" xmlns="http://www.w3.org/2000/svg" viewBox="0 0 960 540" width="960" height="540">
	<title>blob-scene-haikei-svg</title>
	<style>
		.s0 { fill: #d8f4ff } 
		.s1 { fill: #78ddff } 
		.s2 { fill: #00d1ff } 
	</style>
	<g>
		<path class="s0" d="m960 297c-26.1-19.6-52.1-39.2-79.7-51.6-27.6-12.5-56.7-17.8-72.5-35.9-15.9-18.1-18.5-48.9-42-68.4-23.4-19.5-67.7-27.7-88.3-49.3-20.6-21.6-17.5-56.7-14.5-91.8h297z"/>
		<path class="s1" d="m960 198c-17.4-13.1-34.8-26.1-53.2-34.4-18.3-8.3-37.7-11.9-48.3-23.9-10.6-12.1-12.3-32.6-27.9-45.7-15.7-13-45.2-18.4-58.9-32.8-13.7-14.4-11.7-37.8-9.7-61.2h198z"/>
		<path class="s2" d="m960 99c-8.7-6.5-17.4-13.1-26.6-17.2-9.2-4.2-18.9-5.9-24.1-12-5.3-6-6.2-16.3-14-22.8-7.8-6.5-22.6-9.2-29.5-16.4-6.8-7.2-5.8-18.9-4.8-30.6h99z"/>
	</g>
	<g>
		<path class="s0" d="m0 243c27.2 15.9 54.4 31.8 83.4 40.2 29.1 8.4 60.1 9.4 87.6 21.4 27.6 11.9 51.8 34.8 69.3 60.8 17.4 26 28.1 55.1 36.5 84.7 8.3 29.6 14.2 59.7 20.2 89.9h-297z"/>
		<path class="s1" d="m0 342c18.1 10.6 36.2 21.2 55.6 26.8 19.4 5.6 40 6.3 58.4 14.3 18.4 7.9 34.6 23.2 46.2 40.5 11.6 17.3 18.8 36.7 24.3 56.5 5.6 19.7 9.5 39.8 13.5 59.9h-198z"/>
		<path class="s2" d="m0 441c9.1 5.3 18.1 10.6 27.8 13.4 9.7 2.8 20 3.1 29.2 7.1 9.2 4 17.3 11.6 23.1 20.3 5.8 8.7 9.4 18.4 12.2 28.2 2.7 9.9 4.7 19.9 6.7 30h-99z"/>
	</g>
</svg>