<svg id="visual" viewBox="0 0 960 540" width="960" height="540" xmlns="http://www.w3.org/2000/svg" xmlns:xlink="http://www.w3.org/1999/xlink" version="1.1"><path d="M0 418L22.8 419.3C45.7 420.7 91.3 423.3 137 427.3C182.7 431.3 228.3 436.7 274 433.2C319.7 429.7 365.3 417.3 411.2 414.2C457 411 503 417 548.8 418.3C594.7 419.7 640.3 416.3 686 417.5C731.7 418.7 777.3 424.3 823 430.7C868.7 437 914.3 444 937.2 447.5L960 451L960 541L937.2 541C914.3 541 868.7 541 823 541C777.3 541 731.7 541 686 541C640.3 541 594.7 541 548.8 541C503 541 457 541 411.2 541C365.3 541 319.7 541 274 541C228.3 541 182.7 541 137 541C91.3 541 45.7 541 22.8 541L0 541Z" fill="#26ccee"></path><path d="M0 452L22.8 453.7C45.7 455.3 91.3 458.7 137 460.5C182.7 462.3 228.3 462.7 274 459.7C319.7 456.7 365.3 450.3 411.2 451.7C457 453 503 462 548.8 463.7C594.7 465.3 640.3 459.7 686 458.8C731.7 458 777.3 462 823 458.5C868.7 455 914.3 444 937.2 438.5L960 433L960 541L937.2 541C914.3 541 868.7 541 823 541C777.3 541 731.7 541 686 541C640.3 541 594.7 541 548.8 541C503 541 457 541 411.2 541C365.3 541 319.7 541 274 541C228.3 541 182.7 541 137 541C91.3 541 45.7 541 22.8 541L0 541Z" fill="#00b9fa"></path><path d="M0 453L22.8 458C45.7 463 91.3 473 137 473C182.7 473 228.3 463 274 460.5C319.7 458 365.3 463 411.2 469.3C457 475.7 503 483.3 548.8 481.3C594.7 479.3 640.3 467.7 686 464.7C731.7 461.7 777.3 467.3 823 470.2C868.7 473 914.3 473 937.2 473L960 473L960 541L937.2 541C914.3 541 868.7 541 823 541C777.3 541 731.7 541 686 541C640.3 541 594.7 541 548.8 541C503 541 457 541 411.2 541C365.3 541 319.7 541 274 541C228.3 541 182.7 541 137 541C91.3 541 45.7 541 22.8 541L0 541Z" fill="#00a2ff"></path><path d="M0 490L22.8 491.2C45.7 492.3 91.3 494.7 137 495.7C182.7 496.7 228.3 496.3 274 495.2C319.7 494 365.3 492 411.2 491.8C457 491.7 503 493.3 548.8 494.7C594.7 496 640.3 497 686 498C731.7 499 777.3 500 823 501.3C868.7 502.7 914.3 504.3 937.2 505.2L960 506L960 541L937.2 541C914.3 541 868.7 541 823 541C777.3 541 731.7 541 686 541C640.3 541 594.7 541 548.8 541C503 541 457 541 411.2 541C365.3 541 319.7 541 274 541C228.3 541 182.7 541 137 541C91.3 541 45.7 541 22.8 541L0 541Z" fill="#0087ff"></path><path d="M0 513L22.8 513.7C45.7 514.3 91.3 515.7 137 515.2C182.7 514.7 228.3 512.3 274 511C319.7 509.7 365.3 509.3 411.2 510.7C457 512 503 515 548.8 516.5C594.7 518 640.3 518 686 515C731.7 512 777.3 506 823 505.7C868.7 505.3 914.3 510.7 937.2 513.3L960 516L960 541L937.2 541C914.3 541 868.7 541 823 541C777.3 541 731.7 541 686 541C640.3 541 594.7 541 548.8 541C503 541 457 541 411.2 541C365.3 541 319.7 541 274 541C228.3 541 182.7 541 137 541C91.3 541 45.7 541 22.8 541L0 541Z" fill="#0066ff"></path></svg>