<svg xmlns="http://www.w3.org/2000/svg" viewBox="0 0 256 352"><defs><style>.cls-1{fill:#f2b983;}.cls-2{fill:#ffe0bf;}.cls-3{fill:#ff624e;}.cls-4{fill:#fff;}.cls-5{fill:#e2e4f1;}.cls-6,.cls-7{fill:#445665;}.cls-7{fill-rule:evenodd;}</style></defs><g id="Шар_2" data-name="Шар 2"><g id="Шар_1-2" data-name="Шар 1"><g id="Doctor_male_" data-name="Doctor (male)"><path class="cls-1" d="M49.88,94.69c7.44,0,23.06,2.5,21.44-6.62l.17-29.3c-.28-4.08.24-4,2.47-3.05,3,1.31,19.44,6.94,26.25,8.22,23.25,4.4,52.71-3.08,74-9.76,2.07,3.17,12.29,15.38,12.7,22.35C188.07,96.11,192,95,209.48,95V45.32c-.83-7.89-4.79-16.38-11.29-21.5-7.31-7.62-16.87-6.58-25.78-11-7.8-4.8-13-7.5-26.3-9.16C124.4.89,96.05,10.7,91.1,13c0,0-20.08,7.63-31.28,12.72-5.61,2.49-13.51,1.68-15,4.81-2.09,4.34,11.12,13.64,11.12,13.64-2.63,4.95-6.2,10.4-5.91,16.16Z"/><path class="cls-2" d="M209.72,101l-.24-6c-3.31-.15-8.19.27-12.36,0a9.13,9.13,0,0,1-8.26-7.31c-2.44-12.26-3.44-24.42-15.6-33.48-28.43,8.63-68.57,17.38-101.93.36L71.2,91c-1.11,5.56-15.37,3.13-21.32,3.68l0,5.36c-19.42,5.58-13.2,35.57,8.8,31.2,2.67,18.76,10.55,41.84,30.5,53v36c-.51,12.48,18.35,26,41,26h0c22.64,0,39.41-15,41-25V183.4c18.41-12.05,27.77-30.1,28.14-51.46C221.05,136.69,230.68,107.62,209.72,101Z"/><path class="cls-3" d="M122.15,330,87.49,230.1s17.49,11.07,28.83,14.72c8.37,2.69,21.4,1.29,29.76-1.45l25.28-13.74-34.65,98.89c-1.31,4-3.25,6.66-7.35,6.66A7.54,7.54,0,0,1,122.15,330Z"/><path class="cls-4" d="M67.82,211.59l13.06-2,41.67,121a6.69,6.69,0,0,0,12.71-.2l28.28-77.54,14.19-43s9.58.81,11.81,1.33c5.12,1.2,7.92,4.74,7.22,6.74l-4.32,5.89a207.25,207.25,0,0,1,34.95,11.69c17.38,7.71,24.32,34.16,24.32,34.16l.8,71.23c0,4-3.25,7.85-8.76,7.85l-223.83.49c-6.81,0-15.66.91-16.66-10l.7-67.7S8,238.25,46.35,229.16c8.76-2.07,20.24-4.6,20.24-4.6L63.13,220C61.73,215.66,65.42,212.19,67.82,211.59Z"/><path class="cls-5" d="M30.2,294.17h47a4,4,0,0,1,4,4v27a4,4,0,0,1-4,4h-47a4,4,0,0,1-4-4v-27A4,4,0,0,1,30.2,294.17Z"/><path class="cls-6" d="M230.2,294.17h-11v-11a4,4,0,0,0-8,0v11h-11a4,4,0,0,0,0,8h11v11a4,4,0,0,0,8,0v-11h11a4,4,0,0,0,0-8Z"/><g id="Doctor_male_2" data-name="Doctor (male)"><path class="cls-7" d="M156.5,108a5.51,5.51,0,1,0,5.5,5.51A5.5,5.5,0,0,0,156.5,108Z"/><path class="cls-7" d="M147,95h19a4,4,0,0,0,0-8H147a4,4,0,0,0,0,8Z"/><path class="cls-7" d="M230,294.31H219v-11a4,4,0,1,0-8,0v11H200a4,4,0,0,0,0,8h11v11a4,4,0,1,0,8,0v-11h11a4,4,0,0,0,0-8Z"/><path class="cls-7" d="M116,91a4,4,0,0,0-4-4H93a4,4,0,0,0,0,8h19A4,4,0,0,0,116,91Z"/><path class="cls-7" d="M155.38,149.21a4,4,0,0,0-6.8-4.2,23,23,0,0,1-39.22,0,4,4,0,0,0-6.81,4.2,30.85,30.85,0,0,0,52.83,0Z"/><path class="cls-7" d="M215.64,226.33l-16.26-4.48a12.19,12.19,0,0,0-.5-6,11.87,11.87,0,0,0-10.34-8.06l-8.82-.94c-2.93-.06-3.75.93-4.43,2.12V185.13a72.79,72.79,0,0,0,27.51-49.95h2.31a19,19,0,0,0,19.08-18.9v-2a16.86,16.86,0,0,0-11.35-15.91V50.61c.3-21.7-16.87-39.41-38.35-40.7-.1-.08-1.43-1.19-2.11-1.69-4.82-3.48-8.53-4.48-13.35-5.67,0,0-10.07-2.2-16.36-2.49C135-.29,123,1,122.78,1.05A120.66,120.66,0,0,0,95.37,7.72C92,8.89,88,10.55,83.76,12.34l-4.65,1.95c-5.92,2.58-12,5.17-18,7.36A54.86,54.86,0,0,1,46.2,24.93h-.08c-2.78.3-4.77.51-6.06,2.48a4.35,4.35,0,0,0-.51,3.68c.71,2.19,4.52,7.77,11.85,13.73a19.51,19.51,0,0,0-5,12.94V98.52a16.84,16.84,0,0,0-10.94,15.77v2a19,19,0,0,0,19.07,18.9h2.31a72,72,0,0,0,27.51,49.95v23.79c-.9-1.6-2.4-2.18-4.52-1.89l-9.33,1.09a12,12,0,0,0-10.65,13l-19.37,5.27A54.86,54.86,0,0,0,0,279.16v60.9A12,12,0,0,0,12.05,352H244A12,12,0,0,0,256,340.06v-61A54.93,54.93,0,0,0,215.64,226.33ZM49.9,32.5a65.53,65.53,0,0,0,13.85-3.39c5.9-2.2,19.12-7.88,19.5-8,5.4-2.31,10.5-4.49,14.63-5.89,8.74-3,15.36-5,25.8-6.27,7.13-.89,11.25-1.39,18.28-1,8.81.39,14.22,1.14,25.39,6.77,3.1,2.22,7.63,8.45,7.63,8.45a41,41,0,0,1,4.52,9,4.05,4.05,0,0,0,5.12,2.49,4,4,0,0,0,2.51-5.08,56.57,56.57,0,0,0-5-10.15A32.92,32.92,0,0,1,204.9,50.51v40l-7.43-.07c-2.81,0-4.82-2.79-4.92-5.47a41.38,41.38,0,0,0-2.81-14.43A64.29,64.29,0,0,0,178.2,52.7c-1.81-2.29-2.82-2.89-4.82-2.29-.2.1-18.58,5.37-31.33,7.86-11.44,2.29-19.17,3.18-32.12,2.39-11.75-.7-18.67-1.89-29.11-7.07-2.31-1.19-7.94-3.78-13.16-7.06L58,40.06A55.83,55.83,0,0,1,49.9,32.5ZM67.56,55.78V86.53a4,4,0,0,1-4,4h-9V57.87a11.46,11.46,0,0,1,3.42-8.16C58.18,49.86,67,55.43,67.56,55.78Zm-3,72.44v-6a4,4,0,0,0-8,0v5h-2a11,11,0,0,1-11-10.94v-2a9,9,0,0,1,9-9,4,4,0,0,0,4-4,3.69,3.69,0,0,0-1.41-3h8.34a12,12,0,0,0,12-11.94V59.86c.22.13,1.36.67,1.71.9,11.55,5.67,19.88,7.16,32.13,7.86,3.21.2,6.22.29,8.93.29A116.63,116.63,0,0,0,143.46,66c10.24-2,23.59-5.67,29.21-7.26,2.41,2.78,6.83,8.25,9.34,14.62a35.41,35.41,0,0,1,2.21,11.74c.2,7.27,6,13.14,12.95,13.14h7.43a3.86,3.86,0,0,0-1.51,3.08,4,4,0,0,0,4,4,9,9,0,0,1,9,9v2a11,11,0,0,1-11,10.94h-2v-5a4,4,0,0,0-8,0v6c0,35.62-29.31,64.68-65.25,64.68S64.55,163.84,64.55,128.22Zm64.35,114a47.91,47.91,0,0,1-36.54-17V190.61a73.52,73.52,0,0,0,74.89,0V223A48,48,0,0,1,128.9,242.25Zm34.44-4.88-30,91.55a4,4,0,0,1-3.81,2.78,3.85,3.85,0,0,1-3.82-2.68L94.27,237.67a53.34,53.34,0,0,0,69.07-.3ZM12.05,344a4,4,0,0,1-4-4v-60.9A46.92,46.92,0,0,1,42.67,234.1l20.68-5.68,6.72,7.27a3.87,3.87,0,0,1-.1,5.47l-5.42,5.37a11.85,11.85,0,0,0-2.21,13.92L77.9,290.31H58v-5.87a4,4,0,0,0-8,0v5.87H30.22a8,8,0,0,0-8,8v26.87a8,8,0,0,0,8,7.95H77.4a8,8,0,0,0,8-7.95v-20.4L105.91,344ZM77.4,298.27v26.87H30.22V298.27Zm37.45,45.48L69.37,256.58a4.07,4.07,0,0,1,.7-4.68l5.42-5.37A11.77,11.77,0,0,0,75.8,230l-7-7.56a3.76,3.76,0,0,1-.7-3.88A4.07,4.07,0,0,1,71.38,216l6.62-.79,1.21,3.48L118,331.51a11.77,11.77,0,0,0,11.44,8.05h.11a11.73,11.73,0,0,0,11.34-8.25L179,214.89l8.73.69a3.86,3.86,0,0,1,3.42,2.69,3.81,3.81,0,0,1-1.11,4.18l-7.53,6.87a12,12,0,0,0-3.91,8.55,11.64,11.64,0,0,0,3.51,8.66l5,5a4.08,4.08,0,0,1,.8,4.58l-43.67,87.67ZM248,340.06a4,4,0,0,1-4,4H153.4l42-84.18a11.72,11.72,0,0,0-2.31-13.73l-5-5a4,4,0,0,1-1.2-2.89,4.06,4.06,0,0,1,1.3-2.88l7-6.37,18.37,5.08a47,47,0,0,1,34.54,45.06Z"/><path class="cls-7" d="M108,113.55a5.5,5.5,0,1,0-5.5,5.51A5.55,5.55,0,0,0,108,113.55Z"/></g></g></g></g></svg>