<svg xmlns="http://www.w3.org/2000/svg" viewBox="0 0 304 304"><defs><style>.cls-1{fill:#e2e4f1;}.cls-2{fill:#cbe8ff;}.cls-3{fill:#ff624e;}.cls-4,.cls-5{fill:#445665;}.cls-5{fill-rule:evenodd;}</style></defs><g id="Шар_2" data-name="Шар 2"><g id="Шар_1-2" data-name="Шар 1"><g id="Chart_heartbeat" data-name="Chart heartbeat"><path class="cls-1" d="M9.91,5h283.2A5.89,5.89,0,0,1,299,10.89V269.11a5.89,5.89,0,0,1-5.89,5.89H274a4.38,4.38,0,0,0-4.38,4.38v14.94a4.69,4.69,0,0,1-4.68,4.68H236.4a4.69,4.69,0,0,1-4.68-4.68V279.38a4.38,4.38,0,0,0-4.38-4.38H76.65a4.38,4.38,0,0,0-4.38,4.38v14.94A4.69,4.69,0,0,1,67.59,299h-29a4.69,4.69,0,0,1-4.68-4.68V279.38A4.38,4.38,0,0,0,29.52,275H10.87A5.88,5.88,0,0,1,5,269.13L4,10.91A5.89,5.89,0,0,1,9.91,5Z"/><path class="cls-2" d="M275.86,25H29.17a4.66,4.66,0,0,0-4.65,4.66V250.34A4.66,4.66,0,0,0,29.17,255H275.86a4.66,4.66,0,0,0,4.66-4.66V29.66A4.66,4.66,0,0,0,275.86,25Z"/><path class="cls-3" d="M123.5,54c6.16-.46,17.37-.57,23.54,9.57,3.29,5.12,8.29,3,10.25-.58,14.31-19.74,63.91-3.09,45.7,38.26-6,10.61-45.09,46.08-48.69,49.48a4.5,4.5,0,0,1-6.29,0c-7.6-7.4-27.69-27.32-43.78-46.53C81.22,71.75,114.33,54.2,123.5,54Z"/><path class="cls-4" d="M276,20H28a8,8,0,0,0-8,8V252a8,8,0,0,0,8,8H276a8,8,0,0,0,8-8V28A8,8,0,0,0,276,20Zm0,8V204.6h-61l-21.12-45.8a6,6,0,0,0-5.68-3.5,5.92,5.92,0,0,0-5.38,4l-21.52,61.3-7.87-23.9a5.88,5.88,0,0,0-5.67-4.1H127l-14.54-34A5.89,5.89,0,0,0,107,155a6,6,0,0,0-5.48,3.6l-20.32,46H28V28ZM28,252V212.6H82.66a6,6,0,0,0,5.48-3.6l18.93-43,13.25,31a5.89,5.89,0,0,0,5.48,3.6h20.62l9.27,28.1a6,6,0,0,0,5.57,4.1h.1a6.11,6.11,0,0,0,5.68-4l21.82-62.2,19.63,42.5a6,6,0,0,0,5.38,3.5H276V252Z"/><path class="cls-5" d="M12,0H292a12,12,0,0,1,12,12V268a12,12,0,0,1-12,12H274.1v12a12,12,0,0,1-12,12H239.21a12,12,0,0,1-12-12V280H76.75v12a12,12,0,0,1-12,12H41.86a12,12,0,0,1-12-12V280H12A12,12,0,0,1,0,268V12A12,12,0,0,1,12,0ZM292,272a4,4,0,0,0,4-4V12a4,4,0,0,0-4-4H12a4,4,0,0,0-4,4V268a4,4,0,0,0,4,4H33.89a4,4,0,0,1,4,4v16a4,4,0,0,0,4,4H64.79a4,4,0,0,0,4-4V276a4,4,0,0,1,4-4H231.24a4,4,0,0,1,4,4v16a4,4,0,0,0,4,4h22.93a4,4,0,0,0,4-4V276a4,4,0,0,1,4-4ZM152.36,60.5a34.34,34.34,0,0,1,24.52-9.8,34.75,34.75,0,0,1,23.81,59.5l-46.83,45.7a4.3,4.3,0,0,1-2.8,1.1,4,4,0,0,1-2.8-1.2l-45.53-47a34.71,34.71,0,0,1,.8-49A34.16,34.16,0,0,1,128.15,50,34.54,34.54,0,0,1,152.36,60.5Zm-1.4,87,44-42.9a26.68,26.68,0,0,0,.4-37.7,26.39,26.39,0,0,0-18.71-8.1h-.3a26.43,26.43,0,0,0-18.61,7.6l-2.91,2.9a4.07,4.07,0,0,1-5.7-.1c-.3-.3-2.6-2.9-2.6-2.9a26.57,26.57,0,0,0-18.71-8.1,26,26,0,0,0-18.91,7.5,26.57,26.57,0,0,0-.6,37.7Z"/></g></g></g></svg>