<svg xmlns="http://www.w3.org/2000/svg" xmlns:xlink="http://www.w3.org/1999/xlink" width="500" zoomAndPan="magnify" viewBox="0 0 375 374.999991" height="500" preserveAspectRatio="xMidYMid meet" version="1.0"><defs><clipPath id="a94f34f030"><path d="M 127 7.511719 L 367.488281 7.511719 L 367.488281 248 L 127 248 Z M 127 7.511719 " clip-rule="nonzero"/></clipPath><clipPath id="4de89ce71f"><path d="M 7.511719 127 L 248 127 L 248 367.511719 L 7.511719 367.511719 Z M 7.511719 127 " clip-rule="nonzero"/></clipPath></defs><g clip-path="url(#a94f34f030)"><path fill="#6ecbff" d="M 252.164062 247.488281 L 302.847656 247.488281 C 338.539062 247.488281 367.476562 218.554688 367.476562 182.859375 C 367.476562 147.164062 338.539062 118.226562 302.847656 118.226562 L 256.769531 118.226562 L 256.769531 72.152344 C 256.769531 36.457031 227.832031 7.519531 192.136719 7.519531 C 156.441406 7.519531 127.507812 36.457031 127.507812 72.152344 L 127.507812 122.832031 C 127.507812 124.398438 127.53125 125.957031 127.59375 127.507812 L 128.167969 127.507812 C 194.070312 127.507812 247.492188 180.925781 247.492188 246.828125 L 247.492188 247.402344 C 249.039062 247.464844 250.601562 247.488281 252.164062 247.488281 " fill-opacity="1" fill-rule="nonzero"/></g><g clip-path="url(#4de89ce71f)"><path fill="#fede5a" d="M 182.859375 367.480469 C 218.554688 367.480469 247.492188 338.542969 247.492188 302.847656 L 247.492188 247.402344 C 182.355469 245.007812 129.988281 192.644531 127.59375 127.507812 L 72.152344 127.507812 C 36.457031 127.507812 7.519531 156.441406 7.519531 192.140625 C 7.519531 227.832031 36.457031 256.765625 72.152344 256.765625 L 118.230469 256.765625 L 118.230469 302.847656 C 118.230469 338.542969 147.164062 367.480469 182.859375 367.480469 " fill-opacity="1" fill-rule="nonzero"/></g><path fill="#ffffff" d="M 247.492188 247.402344 L 247.492188 246.828125 C 247.492188 180.925781 194.070312 127.507812 128.167969 127.507812 L 127.59375 127.507812 C 129.988281 192.644531 182.355469 245.007812 247.492188 247.402344 " fill-opacity="1" fill-rule="nonzero"/></svg>