<svg xmlns="http://www.w3.org/2000/svg" viewBox="0 0 304 304"><defs><style>.cls-1{fill:#ffe0bf;}.cls-2{fill:#e2e4f1;}.cls-3{fill:#fff;}.cls-4{fill:#ff624e;}.cls-4,.cls-5{fill-rule:evenodd;}.cls-5{fill:#445665;}</style></defs><g id="Шар_2" data-name="Шар 2"><g id="Шар_1-2" data-name="Шар 1"><g id="Medicaid"><path class="cls-1" d="M97,194c-12.09,0-33.35,7.12-38.75,9.32C58,206,58.17,270.23,58,273.73c8.5,1.1,42.9,7.29,74.8,23.37,12.8,6.5,35.08,3.86,51.07-.14,15.1-3.79,98.91-35.87,108.31-39.46,6.09-3.28,10.54-16.91,7-24.5-4.3-9.49-14.44-13-22-12.2l-59,21.59c-.75.18-1.47-1.66.13-3.76,2.9-3.9,11.24-20.74-6.83-30.94-5.09-3.27-48.11-1.67-51.3-1.38C148.17,205.28,112.89,194,97,194Z"/><path class="cls-2" d="M4,202a8,8,0,0,1,8-8H50a8,8,0,0,1,8,8v75a8,8,0,0,1-8,8H12a8,8,0,0,1-8-8Z"/><path class="cls-3" d="M151.5,150A73.5,73.5,0,1,0,78,76.5,73.5,73.5,0,0,0,151.5,150Z"/><path class="cls-4" d="M151.45,31.66a12,12,0,0,0-12.1,12.14V60a3.84,3.84,0,0,1-3.85,3.85H117.26c-6.78,0-12.1,7.39-12.1,14.14s5.42,13.14,12.1,13.14H135.5a3.83,3.83,0,0,1,3.85,3.84v16.16a12.1,12.1,0,1,0,24.19,0V94.73a3.84,3.84,0,0,1,3.85-3.85h18.24c6.79,0,12.1-6.39,12.1-13.14s-5.42-13.14-12.1-13.14H167.39a3.85,3.85,0,0,1-3.85-3.85v-17A12,12,0,0,0,151.45,31.66Z"/><path class="cls-5" d="M152.5,153A76.5,76.5,0,1,0,76,76.5,76.56,76.56,0,0,0,152.5,153Zm0-145A68.5,68.5,0,1,1,84,76.5,68.54,68.54,0,0,1,152.5,8ZM302.56,232.56a24,24,0,0,0-30.8-14.3l-46.69,17.11a23.6,23.6,0,0,0,1.7-8.91,24.07,24.07,0,0,0-24-24H162c-.2,0-1.31-.21-1.79-.3h0c-6.19-1.15-31.47-5.81-43.7-9.61-21.39-6.7-45.59,1.5-55.69,5.61a8,8,0,0,0-8-7.21H8a8,8,0,0,0-8,8v81a8,8,0,0,0,8,8H53a8,8,0,0,0,8-8v-1.4c3.8.4,35.7,3.9,62,18.41,8.4,4.6,18.8,7,30.9,7a123.07,123.07,0,0,0,19.3-1.7A156.64,156.64,0,0,0,202,294.52l0,0,86.29-31.62C300.66,258.78,307.06,245,302.56,232.56ZM53,280.19H8v-81H53Zm232.47-24.61-86.39,31.71h0c-1.82.71-45.5,17.71-72.19,3-29.39-16.21-65.79-19.51-65.79-19.51V207c5.8-2.6,31.8-13.41,53.29-6.7,13.4,4.2,40.4,9.1,45.8,10a14.92,14.92,0,0,0,2.1.2h40.79a16,16,0,0,1,0,32H138.18a4,4,0,0,0,0,8h64.89a23.38,23.38,0,0,0,8.8-1.7l62.79-23.11a15.65,15.65,0,0,1,12.2.5,15.94,15.94,0,0,1,8.3,9A16.19,16.19,0,0,1,285.46,255.58ZM134.06,94.9H119.43a17.45,17.45,0,0,1,0-34.9h14.63V44.4a17.44,17.44,0,0,1,34.87,0V60.1h15.64a17.45,17.45,0,0,1,0,34.9H168.93v14.6a17.44,17.44,0,0,1-34.87,0Zm4-26.8H119.43a9.45,9.45,0,0,0,0,18.9h18.64a4,4,0,0,1,4,4v18.5a9.42,9.42,0,0,0,18.84,0V90.9a4,4,0,0,1,4-4h19.64a9.4,9.4,0,1,0,0-18.8H164.93a2.26,2.26,0,0,1-.81-.1,4.06,4.06,0,0,1-3.2-3.9V44.5a9.42,9.42,0,0,0-18.84,0V64.1A4,4,0,0,1,138.07,68.1Z"/></g></g></g></svg>