<svg xmlns="http://www.w3.org/2000/svg" viewBox="0 0 304 304"><defs><style>.cls-1{fill:#e2e4f1;}.cls-2{fill:#fff;}.cls-3{fill:#ff624e;}.cls-3,.cls-4{fill-rule:evenodd;}.cls-4{fill:#445665;}</style></defs><g id="Шар_2" data-name="Шар 2"><g id="Шар_1-2" data-name="Шар 1"><g id="Medical_kit" data-name="Medical kit"><path class="cls-1" d="M3.37,92.49a7.93,7.93,0,0,1,7.92-7.89H293.1A7.92,7.92,0,0,1,301,92.49v200a7.92,7.92,0,0,1-7.91,7.89H11.29a7.93,7.93,0,0,1-7.92-7.89Z"/><path class="cls-2" d="M152,269.71c41.82,0,75.76-34.14,75.76-76.24S193.79,117.23,152,117.23,76.2,151.36,76.2,193.47,110.15,269.71,152,269.71Z"/><path class="cls-3" d="M153.11,146.57a12.06,12.06,0,0,0-12.3,12v17.92a3.85,3.85,0,0,1-3.92,3.8H118.34a12,12,0,1,0,0,24h18.55a3.85,3.85,0,0,1,3.92,3.8V226a12.3,12.3,0,0,0,24.6,0V208.05a3.84,3.84,0,0,1,3.91-3.8h18.55a12,12,0,1,0,0-24H169.32a3.84,3.84,0,0,1-3.91-3.8V158.56A12.13,12.13,0,0,0,153.11,146.57Z"/><path class="cls-1" d="M181.7,4H117.3A50.17,50.17,0,0,0,67,54V85H87.12V46.5C92.25,34.2,96.68,29,108.75,25h81c12.28,4.4,17.51,8.9,21.64,20.5V85H232V54A50.17,50.17,0,0,0,181.7,4Z"/><path class="cls-4" d="M235.78,81.27H296a8,8,0,0,1,8,8V296a8,8,0,0,1-8,8H8a8,8,0,0,1-8-8V89.29a8,8,0,0,1,8-8H63.21V54.18A54.21,54.21,0,0,1,117.39,0H181.6a54.21,54.21,0,0,1,54.18,54.18ZM117.39,8A46.16,46.16,0,0,0,71.23,54.18V81.27h12V54.18a34.21,34.21,0,0,1,34.12-34.11H181.6a34.21,34.21,0,0,1,34.11,34.11V81.27h12V54.18A46.15,46.15,0,0,0,181.6,8Zm90.29,73.24V54.18A26.16,26.16,0,0,0,181.6,28.09H117.39A26.17,26.17,0,0,0,91.3,54.18V81.27ZM8,296H296V89.29H8ZM151.5,113C107.62,113,72,148.92,72,193s35.62,80,79.5,80S231,237.08,231,193,195.38,113,151.5,113Zm0,152c-39.35,0-71.45-32.3-71.45-71.95s32.1-71.95,71.45-71.95S223,153.35,223,193,190.85,265,151.5,265ZM185.57,175H169.93V159.42a17.44,17.44,0,0,0-34.87,0V175H120.43a17.42,17.42,0,1,0,0,34.84h14.63v14.71a17.44,17.44,0,0,0,34.87,0V210.07h15.64a17.52,17.52,0,0,0,0-35Zm0,27H165.93a4,4,0,0,0-4,4v18.62a9.42,9.42,0,0,1-18.84,0V206.06a4,4,0,0,0-4-4H120.43a9.41,9.41,0,0,1,0-18.82h18.64a4,4,0,0,0,4-4V159.62a9.42,9.42,0,0,1,18.84,0v19.62a4.06,4.06,0,0,0,3.2,3.9c.3.1,20.45.1,20.45.1a9.41,9.41,0,0,1,0,18.82Z"/></g></g></g></svg>