<svg xmlns="http://www.w3.org/2000/svg" viewBox="0 0 304 304"><defs><style>.cls-1,.cls-5{fill:#ff624e;}.cls-2{fill:#fff;}.cls-3{fill:#e2e4f1;}.cls-4{fill:#445665;}.cls-5{fill-rule:evenodd;}</style></defs><g id="Шар_2" data-name="Шар 2"><g id="Шар_1-2" data-name="Шар 1"><g id="Medical_calendar" data-name="Medical calendar"><path class="cls-1" d="M3.7,59.55c0-17.07,13.5-30.87,30.23-30.87H269.77c16.73,0,30.23,13.8,30.23,30.87V99.71H3.7Z"/><path class="cls-2" d="M3.7,99.67H300V292.19a8,8,0,0,1-7.85,8.07H11.55a8,8,0,0,1-7.85-8.07Z"/><path class="cls-3" d="M85.41,4.05c7.71,0,14,6.22,14,15.05V48.65c0,8.82-6.31,16.05-14,16.05s-14-7.23-14-16.05V19.1C71.4,10.27,77.7,4.05,85.41,4.05Z"/><path class="cls-3" d="M152.48,4.05c8.18,0,14.88,7.33,14.88,16.3v29c0,9-6.7,16.3-14.88,16.3s-14.89-7.33-14.89-16.3v-29C137.59,11.38,144.29,4.05,152.48,4.05Z"/><path class="cls-3" d="M219.3,4.05c7.58,0,13.78,6.33,13.78,15.3v30c0,9-6.2,16.3-13.78,16.3s-13.77-7.33-13.77-16.3v-30C205.53,10.38,211.72,4.05,219.3,4.05Z"/><path class="cls-2" d="M151.5,272.11A71.27,71.27,0,1,0,80,200.84,71.39,71.39,0,0,0,151.5,272.11Z"/><path class="cls-4" d="M270,24.92H237v-6a18,18,0,0,0-36,0v6H170v-6a18,18,0,0,0-36,0v6H103v-7a18,18,0,0,0-36,0v7H34A34,34,0,0,0,0,58.81V292a12,12,0,0,0,12,12H292a12,12,0,0,0,12-12V58.81A34,34,0,0,0,270,24.92Zm-61-6a10,10,0,0,1,20,0V50.83a10,10,0,0,1-20,0Zm-67,0a10,10,0,0,1,20,0V50.83a10,10,0,0,1-20,0Zm-67-1a10,10,0,0,1,20,0v31.9a10,10,0,0,1-20,0ZM8,58.81A26,26,0,0,1,34,32.89H67v17a18,18,0,0,0,36,0v-17h31V50.83a18,18,0,0,0,36,0V32.89h31V50.83a18,18,0,0,0,36,0V32.89h33a26,26,0,0,1,26,25.92V96.68H8ZM296,292a4,4,0,0,1-4,4H12a4,4,0,0,1-4-4V104.66H296Z"/><path class="cls-4" d="M151.5,277.09A76.25,76.25,0,1,0,75,200.84,76.44,76.44,0,0,0,151.5,277.09Zm0-144.53A68.28,68.28,0,1,1,83,200.84,68.43,68.43,0,0,1,151.5,132.56Z"/><path class="cls-5" d="M152.11,156.46a13,13,0,0,0-13,13v19.25H121a13,13,0,0,0-13,13h0a13,13,0,0,0,13,12.95h18.14v18.14a13,13,0,0,0,13,13h0a13,13,0,0,0,13-13V214.57h19.25a13,13,0,0,0,13-12.95h0a13,13,0,0,0-13-13H165.07V169.42a13,13,0,0,0-13-13Z"/><path class="cls-4" d="M121,218.28h14v14a17,17,0,0,0,34,0v-14h15a17,17,0,0,0,17-16.94,17.16,17.16,0,0,0-17-17H169V169.44a17,17,0,0,0-34,0v14.95H121a16.95,16.95,0,1,0,0,33.89Zm0-25.91h18a3.63,3.63,0,0,0,2.8-1.2,4,4,0,0,0,1.2-2.79V169.44a9,9,0,0,1,18,0v18.94a4,4,0,0,0,4,4h19a9,9,0,1,1,0,17.94H165a3.66,3.66,0,0,0-2.8,1.19,4,4,0,0,0-1.2,2.79v18a9,9,0,0,1-18,0v-18a4,4,0,0,0-4-4H121a9,9,0,1,1,0-17.94Z"/></g></g></g></svg>