<svg xmlns="http://www.w3.org/2000/svg" viewBox="0 0 352 256"><defs><style>.cls-1{fill:#cbe8ff;}.cls-2,.cls-4{fill:#ff624e;}.cls-3{fill:#fff;}.cls-4,.cls-6{fill-rule:evenodd;}.cls-5{fill:#e2e4f1;}.cls-6{fill:#445665;}</style></defs><g id="Шар_2" data-name="Шар 2"><g id="Шар_1-2" data-name="Шар 1"><g id="Small_car" data-name="Small car"><path class="cls-1" d="M192.48,4H80.94S59.43,4,48.87,18.75C41.27,27.75,20,96.09,20,96.09l280.91.27S277.35,50.84,256.15,32C233.36,9,192.48,4,192.48,4Z"/><path class="cls-2" d="M29.21,96.09H293.37c3.66,0,7.63.51,10.38,3a177.4,177.4,0,0,0,29.19,21.51c15.56,12.29,13.73,30.73,13.73,30.73l1,62.79a4.9,4.9,0,0,1-4.88,4.92H7.13a3,3,0,0,1-3-3.07L2.86,127.13C1.37,104.33,24.83,96.09,29.21,96.09Z"/><path class="cls-3" d="M176.41,203a45.49,45.49,0,1,0-45.48-45.49A45.47,45.47,0,0,0,176.41,203Z"/><path class="cls-4" d="M177,128.74a7.36,7.36,0,0,0-7.43,7.42v13.55H156a7.43,7.43,0,1,0,0,14.85h13.54v13.55a7.43,7.43,0,0,0,14.86,0V164.56H198a7.43,7.43,0,1,0,0-14.85H184.43V136.16A7.36,7.36,0,0,0,177,128.74Z"/><path class="cls-5" d="M283.36,252.89a41.44,41.44,0,1,0-41.44-41.44A41.38,41.38,0,0,0,283.36,252.89Z"/><path class="cls-5" d="M70,252.63a41.58,41.58,0,1,0-41.58-41.58A41.52,41.52,0,0,0,70,252.63Z"/><g id="Small_car-2" data-name="Small car"><path class="cls-6" d="M322.73,108.48C352.41,122.76,352,153.27,352,183.92h0c0,.34,0,27,0,27.32a12,12,0,0,1-12,12H326.23c-12.49,43.41-73.37,43.75-86.38.5H113.44c-13,43.28-73.91,42.88-86.38-.5H12a12,12,0,0,1-12-12V123.1A31.41,31.41,0,0,1,16.48,95.35L39.14,28.14A42.08,42.08,0,0,1,78.89,0H189.23C208.9,1.25,244.46,11.6,258,27.74c20.25,21.64,30.39,39.51,43.84,62h0c1,1.71,2.06,3.47,3.19,5.22.09.1.79.73,1,1C311.31,101.72,322.73,108.48,322.73,108.48ZM184.37,7.92H135.3V91.54H293.67c-.1-.15-22.66-38.26-41.44-58.38-15.13-16.23-47.51-22.7-59.51-24.59A53,53,0,0,0,184.37,7.92Zm-105.48,0A34.25,34.25,0,0,0,46.73,30.75L26.06,92c1.3-.2,2.6-.31,3.9-.41h97.36V7.92ZM33.35,211.13A37,37,0,0,0,70.3,248.19c49-2,49-72.08,0-74.11A37.05,37.05,0,0,0,33.35,211.13Zm212.69,0a37,37,0,0,0,37,37.06c49-2,49-72.08,0-74.11A37.05,37.05,0,0,0,246,211.13Zm94,4.12a4,4,0,0,0,4-4V183.69c0-3.2,0-22.63-1.5-32.95-3.48-23.34-12.4-28.6-23.72-35.28l-.14-.08c-6.06-3.61-12.46-7.29-18.57-14.12a4.87,4.87,0,0,0-3.5-1.7H31.65A23.08,23.08,0,0,0,15,106.27,23.62,23.62,0,0,0,8,123.1v88.14a4,4,0,0,0,4,4H25.56l0-.26c-2.39-26.07,18.65-49.06,44.76-48.92,26.42-.17,47.49,23.4,44.73,49.68H238.25c-2.73-26.29,18.3-49.84,44.74-49.68,26.1-.14,47.15,22.85,44.75,48.91h0l0,.26ZM176.5,109.09A48.63,48.63,0,0,0,128,157.63c2.78,64.4,94.23,64.38,97,0A48.63,48.63,0,0,0,176.5,109.09Zm0,89.07A40.6,40.6,0,0,1,136,157.63c2.31-53.78,78.69-53.77,81,0A40.6,40.6,0,0,1,176.5,198.16Zm12.39-52.93v-8.18a12.19,12.19,0,0,0-24.38,0v8.18h-7.57a12.2,12.2,0,0,0,0,24.4h7.57v7.57a12.19,12.19,0,0,0,24.38,0v-7.57h8.16a12.2,12.2,0,0,0,0-24.4Zm12.15,12a4.06,4.06,0,0,1-4,4.48H184.91a4,4,0,0,0-4,4V177.2a4.05,4.05,0,0,1-4.48,4,4,4,0,0,1-4-4V165.54a4,4,0,0,0-4-4H156.94a4,4,0,0,1-4-4,4.06,4.06,0,0,1,4-4.49h11.55a4,4,0,0,0,4-4V137.05c.09-5.31,8.37-5.32,8.46,0v12.16a3.61,3.61,0,0,0,1.19,2.78,4,4,0,0,0,2.79,1.2h12.14A4,4,0,0,1,201,157.18Zm81.46,48a5.62,5.62,0,0,0-5.5,5.5,5.51,5.51,0,1,0,5.5-5.5ZM65,210.67a5.62,5.62,0,0,1,5.5-5.5,5.51,5.51,0,1,1-5.5,5.5Z"/></g></g></g></g></svg>