<svg xmlns="http://www.w3.org/2000/svg" viewBox="0 0 304 304"><defs><style>.cls-1{fill:#e2e4f1;}.cls-2{fill:#ff624e;}.cls-3{fill:#fff;}.cls-4{fill:#445665;fill-rule:evenodd;}</style></defs><g id="Шар_2" data-name="Шар 2"><g id="Шар_1-2" data-name="Шар 1"><g id="Stethoscope"><path class="cls-1" d="M15.47,14.06c6.64-.59,21.18-.24,23.58-.24l0,18.11H23.43l.39,48.2c0,8.94,2.17,18.32,7.17,25.77.9,1.39,10.65,13.39,17.05,16.57,14,7.26,26.85,9.76,42.24,5.52,25-9,28.52-21.89,30.82-26.16,3.8-7.26,5-15.4,5.42-23.54l-.43-46.36-13.93-.19L112,14s19.12.06,24.43.45c0,0,10.66,2.28,11.6,15.28V74s-.87,18.92-5,29.35a73.42,73.42,0,0,1-37.56,40.8c-7.8,3.77-20.71,5.6-20.71,5.6l.15,27.36-18.87.12.13-27.1s-18.53-3.85-29-10.31C25.16,132.5,20,124.63,12,112.71,5.46,103.07,3.83,82,3.83,82V28.23A15.09,15.09,0,0,1,15.47,14.06Z"/><path class="cls-2" d="M67.3,217.52c-2.69-15.4-1.23-40.26-1.23-40.26l18.87-.12c0,2.28.25,12.19.28,14.8.4,33.68,13.84,71.31,59.12,84.54,29.6,8.65,60.43.73,81.74-21.94,27-24.92,21.07-65,21.32-96l20.07-.55c.2,28.55,3.19,53.43-8.45,82.45-14.09,35.14-54.68,61.86-89.62,60.81C117.74,299.71,77,267.48,67.3,217.52Z"/><path class="cls-3" d="M45.9,40.65C52.55,37.93,56,30.67,56,22S52.34,6.47,45.69,3.75c-3-1.16-6.69,1.4-6.69,5V35.22C39,38.85,42.92,41.81,45.9,40.65Z"/><path class="cls-3" d="M105.46,40.84C98.81,38,95,31.4,95,22.5S99.06,6.81,105.71,4c3-1.18,6.29,1.19,6.29,4.93V36.06A4.89,4.89,0,0,1,105.46,40.84Z"/><path class="cls-1" d="M258,160a44,44,0,1,0-44-44A44,44,0,0,0,258,160Z"/><path class="cls-3" d="M258,134a18,18,0,1,0-18-18A18,18,0,0,0,258,134Z"/><path class="cls-4" d="M211.61,115.77A46.2,46.2,0,1,1,271.22,160v40.71C271.22,257.61,224.43,304,166.9,304S61.59,257.61,61.59,200.69v-48A75.5,75.5,0,0,1,0,78.52V29.34A19.39,19.39,0,0,1,19.37,10H35.76V6.89a7.35,7.35,0,0,1,2.39-5.46A5.3,5.3,0,0,1,43.61.34a23.88,23.88,0,0,1,0,45.09,6.68,6.68,0,0,1-1.89.3,5.45,5.45,0,0,1-3.67-1.49,7.66,7.66,0,0,1-2.29-5.46v-3H27.82V78.52a47.69,47.69,0,0,0,95.37,0V35.8h-8v2.88a7.35,7.35,0,0,1-2.38,5.46c-1.2,1.34-3.3,1.67-5.37,1.29a23.86,23.86,0,0,1-.1-45.09,5.31,5.31,0,0,1,5.47,1.09,7.35,7.35,0,0,1,2.38,5.46V10h16.39A19.39,19.39,0,0,1,151,29.34V78.52a75.5,75.5,0,0,1-61.59,74.2v47c0,42.22,35.27,76.49,77.49,76.49a76.52,76.52,0,0,0,76.5-76.49v-40A46.53,46.53,0,0,1,211.61,115.77ZM99.34,22.88a16,16,0,0,0,8,13.81V9.08A15.88,15.88,0,0,0,99.34,22.88Zm-47.68-.1a16,16,0,0,0-7.95-13.7V36.59A15.89,15.89,0,0,0,51.66,22.78ZM8,78.52a67.57,67.57,0,0,0,57.92,66.85,4.17,4.17,0,0,1,3.67,4.08v24.43H81.46V149.45a4.17,4.17,0,0,1,3.68-4.08,67.58,67.58,0,0,0,57.92-66.85V29.34a11.49,11.49,0,0,0-11.43-11.42H115.24v9.93h11.92a4,4,0,0,1,4,4v46.7a55.63,55.63,0,1,1-111.26,0V31.82a4,4,0,0,1,4-4H35.76V17.92H19.37A11.48,11.48,0,0,0,8,29.34ZM234.86,268.14a94.33,94.33,0,0,0,28.41-67.45v-39a48.79,48.79,0,0,1-5.47.3,47.05,47.05,0,0,1-6.45-.49V199.7a84.49,84.49,0,0,1-84.45,84.43c-46.59,0-85.44-37.84-85.44-84.43V181.83H69.54v18.86A94.33,94.33,0,0,0,98,268.14a98.77,98.77,0,0,0,69,27.91A96.42,96.42,0,0,0,234.86,268.14Zm-15.3-152.37A38.25,38.25,0,1,0,257.8,77.53,38.32,38.32,0,0,0,219.56,115.77ZM238,116a20,20,0,1,1,20,20A20.06,20.06,0,0,1,238,116Zm8,0a12,12,0,1,0,12-12A12,12,0,0,0,246,116Z"/></g></g></g></svg>