<svg xmlns="http://www.w3.org/2000/svg" viewBox="0 0 304 304"><defs><style>.cls-1{fill:#e2e4f1;}.cls-2{fill:#ff624e;}.cls-3{fill:#cbe8ff;}.cls-4{fill:#445665;fill-rule:evenodd;}</style></defs><g id="Шар_2" data-name="Шар 2"><g id="Шар_1-2" data-name="Шар 1"><g id="Thermometer"><path class="cls-1" d="M105,165.25,21.14,254.4c4.63,4.47,22.25,21.84,28.23,27.86l90.52-85.36,14.89-5.08c17.64-3.45,28.85-16.53,39.81-27.28l93.2-92.12c15.82-15.51,16-44.24-.62-58.74C272,.4,245.34,1.82,231.24,16.12l-92.88,94.16C126.69,121.54,117.63,126.75,112,152Z"/><path class="cls-2" d="M21.14,254.4,6.86,269C.52,276,2.91,288.15,10,294.6c6.55,5.94,17.53,8,24.18,2.28l15.23-14.62Z"/><path class="cls-3" d="M240.73,93.76l34.14-33.51c7.82-7.81,11.31-22.61.6-32.34C264,18.31,250.81,22.53,243,30.34L210.08,63.13c-3.19,3.19-4.43,7.3-1.14,10.49l19.71,20.25C234,98.49,237.54,97,240.73,93.76Z"/><path class="cls-2" d="M181.3,136.33a16.64,16.64,0,1,0-16.63-16.64A16.65,16.65,0,0,0,181.3,136.33Z"/><path class="cls-4" d="M230.23,12.61a43.32,43.32,0,0,1,61.1,0,43.06,43.06,0,0,1,.11,60.9L181.19,183.64a33.33,33.33,0,0,1-14.9,8.51c-17.33,4.45-25.23,7.9-45.4,28.06l-.1.1L39.22,297.62a23.81,23.81,0,0,1-16,6.38A23.15,23.15,0,0,1,6.49,264.79L83.3,183c20.37-20.16,23.91-28.47,28.37-45.49a33.27,33.27,0,0,1,8.51-14.9ZM33.75,291.74l10.43-10.13L22.5,259.72,12.37,270.36a14.92,14.92,0,0,0,.3,21.18A15.09,15.09,0,0,0,33.75,291.74ZM175.41,178,285.66,67.83a35.1,35.1,0,0,0,0-49.54,35.16,35.16,0,0,0-49.65,0L125.65,128.42a25,25,0,0,0-6.38,11.24c-4.76,17.94-8.81,27.46-30.09,48.84L27.87,254,50,276.24l65.16-61.7c21.48-21.58,30.5-25.43,49-30.19A24.47,24.47,0,0,0,175.41,178ZM278.4,25.6a26.18,26.18,0,0,0-36.88,0L204.33,62.79A8.36,8.36,0,0,0,202,68.56a8,8,0,0,0,2.33,5.78l25.33,25.33a8.39,8.39,0,0,0,5.78,2.33,8,8,0,0,0,5.67-2.33L278.4,62.58A26.3,26.3,0,0,0,278.4,25.6Zm-6,31.21L235.24,94,209.9,68.66l37.19-37.18a17.86,17.86,0,0,1,12.77-5.27,17.05,17.05,0,0,1,12.56,5.27A17.92,17.92,0,0,1,272.42,56.81ZM182,99a21.33,21.33,0,0,0-14.85,6.15A20.73,20.73,0,0,0,161,120a21.15,21.15,0,0,0,6.15,14.85A20.73,20.73,0,0,0,182,141a21.52,21.52,0,0,0,14.85-6A21.11,21.11,0,0,0,182,99Zm9.12,30.12a12.88,12.88,0,0,1-9.12,3.79,12.91,12.91,0,0,1,0-25.82,12.91,12.91,0,0,1,9.12,22Z"/></g></g></g></svg>